<svg xmlns="http://www.w3.org/2000/svg" style="display:none" aria-hidden="true">
<symbol id="pose-idle" viewBox="0 0 120 135"><path d="M20 84 q-9,-2 -9,-9 q0,-5 5,-4 q5,1 5,8" fill="#d4a574" stroke="#7a5030" stroke-width="2" stroke-linecap="round" stroke-linejoin="round"/><ellipse cx="46.0" cy="122.0" rx="10.0" ry="7.0" fill="#f0cba0" stroke="#7a5030" stroke-width="2.4"/><ellipse cx="74.0" cy="122.0" rx="10.0" ry="7.0" fill="#f0cba0" stroke="#7a5030" stroke-width="2.4"/><g class="h-ears" transform="rotate(-12 47 48)"><ellipse cx="47.0" cy="36.0" rx="10.0" ry="14.0" fill="#d4a574" stroke="#7a5030" stroke-width="2.4"/><ellipse cx="47.0" cy="38.0" rx="5.0" ry="8.0" fill="#ffb8c8" stroke="#7a5030" stroke-width="0"/></g><g class="h-ears" transform="rotate(12 73 48)"><ellipse cx="73.0" cy="36.0" rx="10.0" ry="14.0" fill="#d4a574" stroke="#7a5030" stroke-width="2.4"/><ellipse cx="73.0" cy="38.0" rx="5.0" ry="8.0" fill="#ffb8c8" stroke="#7a5030" stroke-width="0"/></g><ellipse cx="60.0" cy="78.0" rx="42.0" ry="44.0" fill="#d4a574" stroke="#7a5030" stroke-width="2.4"/><ellipse cx="60.0" cy="88.0" rx="28.0" ry="30.0" fill="#f5e6d0" stroke="#7a5030" stroke-width="0"/><ellipse cx="46.0" cy="66.0" rx="6.5" ry="6.5" fill="#3a2418" stroke="#7a5030" stroke-width="0"/><circle cx="44" cy="64" r="2" fill="#fff"/><ellipse cx="74.0" cy="66.0" rx="6.5" ry="6.5" fill="#3a2418" stroke="#7a5030" stroke-width="0"/><circle cx="72" cy="64" r="2" fill="#fff"/><ellipse cx="60.0" cy="77.0" rx="4.5" ry="3.5" fill="#e07a9e" stroke="#7a5030" stroke-width="1.6"/><path d="M60 79 Q55 84 52 81 M60 79 Q65 84 68 81" fill="none" stroke="#7a5030" stroke-width="2.2" stroke-linecap="round" stroke-linejoin="round"/><ellipse cx="48.0" cy="104.0" rx="8.0" ry="6.5" fill="#f0cba0" stroke="#7a5030" stroke-width="2.4"/><ellipse cx="72.0" cy="104.0" rx="8.0" ry="6.5" fill="#f0cba0" stroke="#7a5030" stroke-width="2.4"/></symbol>
<symbol id="pose-look-left" viewBox="0 0 120 135"><path d="M20 84 q-9,-2 -9,-9 q0,-5 5,-4 q5,1 5,8" fill="#d4a574" stroke="#7a5030" stroke-width="2" stroke-linecap="round" stroke-linejoin="round"/><ellipse cx="46.0" cy="122.0" rx="10.0" ry="7.0" fill="#f0cba0" stroke="#7a5030" stroke-width="2.4"/><ellipse cx="74.0" cy="122.0" rx="10.0" ry="7.0" fill="#f0cba0" stroke="#7a5030" stroke-width="2.4"/><g class="h-ears" transform="rotate(-12 47 48)"><ellipse cx="47.0" cy="36.0" rx="10.0" ry="14.0" fill="#d4a574" stroke="#7a5030" stroke-width="2.4"/><ellipse cx="47.0" cy="38.0" rx="5.0" ry="8.0" fill="#ffb8c8" stroke="#7a5030" stroke-width="0"/></g><g class="h-ears" transform="rotate(12 73 48)"><ellipse cx="73.0" cy="36.0" rx="10.0" ry="14.0" fill="#d4a574" stroke="#7a5030" stroke-width="2.4"/><ellipse cx="73.0" cy="38.0" rx="5.0" ry="8.0" fill="#ffb8c8" stroke="#7a5030" stroke-width="0"/></g><ellipse cx="60.0" cy="78.0" rx="42.0" ry="44.0" fill="#d4a574" stroke="#7a5030" stroke-width="2.4"/><ellipse cx="60.0" cy="88.0" rx="28.0" ry="30.0" fill="#f5e6d0" stroke="#7a5030" stroke-width="0"/><ellipse cx="41.0" cy="66.0" rx="6.5" ry="6.5" fill="#3a2418" stroke="#7a5030" stroke-width="0"/><circle cx="39" cy="64" r="2" fill="#fff"/><ellipse cx="69.0" cy="66.0" rx="6.5" ry="6.5" fill="#3a2418" stroke="#7a5030" stroke-width="0"/><circle cx="67" cy="64" r="2" fill="#fff"/><ellipse cx="55.0" cy="77.0" rx="4.5" ry="3.5" fill="#e07a9e" stroke="#7a5030" stroke-width="1.6"/><path d="M55 79 Q50 84 47 81 M55 79 Q60 84 63 81" fill="none" stroke="#7a5030" stroke-width="2.2" stroke-linecap="round" stroke-linejoin="round"/><ellipse cx="48.0" cy="104.0" rx="8.0" ry="6.5" fill="#f0cba0" stroke="#7a5030" stroke-width="2.4"/><ellipse cx="72.0" cy="104.0" rx="8.0" ry="6.5" fill="#f0cba0" stroke="#7a5030" stroke-width="2.4"/></symbol>
<symbol id="pose-look-right" viewBox="0 0 120 135"><path d="M20 84 q-9,-2 -9,-9 q0,-5 5,-4 q5,1 5,8" fill="#d4a574" stroke="#7a5030" stroke-width="2" stroke-linecap="round" stroke-linejoin="round"/><ellipse cx="46.0" cy="122.0" rx="10.0" ry="7.0" fill="#f0cba0" stroke="#7a5030" stroke-width="2.4"/><ellipse cx="74.0" cy="122.0" rx="10.0" ry="7.0" fill="#f0cba0" stroke="#7a5030" stroke-width="2.4"/><g class="h-ears" transform="rotate(-12 47 48)"><ellipse cx="47.0" cy="36.0" rx="10.0" ry="14.0" fill="#d4a574" stroke="#7a5030" stroke-width="2.4"/><ellipse cx="47.0" cy="38.0" rx="5.0" ry="8.0" fill="#ffb8c8" stroke="#7a5030" stroke-width="0"/></g><g class="h-ears" transform="rotate(12 73 48)"><ellipse cx="73.0" cy="36.0" rx="10.0" ry="14.0" fill="#d4a574" stroke="#7a5030" stroke-width="2.4"/><ellipse cx="73.0" cy="38.0" rx="5.0" ry="8.0" fill="#ffb8c8" stroke="#7a5030" stroke-width="0"/></g><ellipse cx="60.0" cy="78.0" rx="42.0" ry="44.0" fill="#d4a574" stroke="#7a5030" stroke-width="2.4"/><ellipse cx="60.0" cy="88.0" rx="28.0" ry="30.0" fill="#f5e6d0" stroke="#7a5030" stroke-width="0"/><ellipse cx="51.0" cy="66.0" rx="6.5" ry="6.5" fill="#3a2418" stroke="#7a5030" stroke-width="0"/><circle cx="49" cy="64" r="2" fill="#fff"/><ellipse cx="79.0" cy="66.0" rx="6.5" ry="6.5" fill="#3a2418" stroke="#7a5030" stroke-width="0"/><circle cx="77" cy="64" r="2" fill="#fff"/><ellipse cx="65.0" cy="77.0" rx="4.5" ry="3.5" fill="#e07a9e" stroke="#7a5030" stroke-width="1.6"/><path d="M65 79 Q60 84 57 81 M65 79 Q70 84 73 81" fill="none" stroke="#7a5030" stroke-width="2.2" stroke-linecap="round" stroke-linejoin="round"/><ellipse cx="48.0" cy="104.0" rx="8.0" ry="6.5" fill="#f0cba0" stroke="#7a5030" stroke-width="2.4"/><ellipse cx="72.0" cy="104.0" rx="8.0" ry="6.5" fill="#f0cba0" stroke="#7a5030" stroke-width="2.4"/></symbol>
<symbol id="pose-walk-1" viewBox="0 0 120 135"><g transform="rotate(3 60 122)"><path d="M20 84 q-9,-2 -9,-9 q0,-5 5,-4 q5,1 5,8" fill="#d4a574" stroke="#7a5030" stroke-width="2" stroke-linecap="round" stroke-linejoin="round"/><ellipse cx="42.0" cy="124.0" rx="10.0" ry="7.0" fill="#f0cba0" stroke="#7a5030" stroke-width="2.4"/><ellipse cx="78.0" cy="120.0" rx="10.0" ry="7.0" fill="#f0cba0" stroke="#7a5030" stroke-width="2.4"/><g class="h-ears" transform="rotate(-12 47 48)"><ellipse cx="47.0" cy="36.0" rx="10.0" ry="14.0" fill="#d4a574" stroke="#7a5030" stroke-width="2.4"/><ellipse cx="47.0" cy="38.0" rx="5.0" ry="8.0" fill="#ffb8c8" stroke="#7a5030" stroke-width="0"/></g><g class="h-ears" transform="rotate(12 73 48)"><ellipse cx="73.0" cy="36.0" rx="10.0" ry="14.0" fill="#d4a574" stroke="#7a5030" stroke-width="2.4"/><ellipse cx="73.0" cy="38.0" rx="5.0" ry="8.0" fill="#ffb8c8" stroke="#7a5030" stroke-width="0"/></g><ellipse cx="60.0" cy="78.0" rx="42.0" ry="44.0" fill="#d4a574" stroke="#7a5030" stroke-width="2.4"/><ellipse cx="60.0" cy="88.0" rx="28.0" ry="30.0" fill="#f5e6d0" stroke="#7a5030" stroke-width="0"/><ellipse cx="46.0" cy="66.0" rx="6.5" ry="6.5" fill="#3a2418" stroke="#7a5030" stroke-width="0"/><circle cx="44" cy="64" r="2" fill="#fff"/><ellipse cx="74.0" cy="66.0" rx="6.5" ry="6.5" fill="#3a2418" stroke="#7a5030" stroke-width="0"/><circle cx="72" cy="64" r="2" fill="#fff"/><ellipse cx="60.0" cy="77.0" rx="4.5" ry="3.5" fill="#e07a9e" stroke="#7a5030" stroke-width="1.6"/><path d="M53 80 Q60 87 67 80" fill="none" stroke="#7a5030" stroke-width="2.4" stroke-linecap="round" stroke-linejoin="round"/><ellipse cx="50.0" cy="102.0" rx="8.0" ry="6.5" fill="#f0cba0" stroke="#7a5030" stroke-width="2.4"/><ellipse cx="74.0" cy="106.0" rx="8.0" ry="6.5" fill="#f0cba0" stroke="#7a5030" stroke-width="2.4"/></g></symbol>
<symbol id="pose-walk-2" viewBox="0 0 120 135"><g transform="rotate(3 60 122)"><path d="M20 82 q-9,-2 -9,-9 q0,-5 5,-4 q5,1 5,8" fill="#d4a574" stroke="#7a5030" stroke-width="2" stroke-linecap="round" stroke-linejoin="round"/><ellipse cx="50.0" cy="120.4" rx="10.0" ry="7.0" fill="#f0cba0" stroke="#7a5030" stroke-width="2.4"/><ellipse cx="72.0" cy="122.4" rx="10.0" ry="7.0" fill="#f0cba0" stroke="#7a5030" stroke-width="2.4"/><g class="h-ears" transform="rotate(-12 47 46)"><ellipse cx="47.0" cy="34.0" rx="10.0" ry="14.0" fill="#d4a574" stroke="#7a5030" stroke-width="2.4"/><ellipse cx="47.0" cy="36.0" rx="5.0" ry="8.0" fill="#ffb8c8" stroke="#7a5030" stroke-width="0"/></g><g class="h-ears" transform="rotate(12 73 46)"><ellipse cx="73.0" cy="34.0" rx="10.0" ry="14.0" fill="#d4a574" stroke="#7a5030" stroke-width="2.4"/><ellipse cx="73.0" cy="36.0" rx="5.0" ry="8.0" fill="#ffb8c8" stroke="#7a5030" stroke-width="0"/></g><ellipse cx="60.0" cy="76.0" rx="42.0" ry="44.0" fill="#d4a574" stroke="#7a5030" stroke-width="2.4"/><ellipse cx="60.0" cy="86.0" rx="28.0" ry="30.0" fill="#f5e6d0" stroke="#7a5030" stroke-width="0"/><ellipse cx="46.0" cy="66.0" rx="6.5" ry="6.5" fill="#3a2418" stroke="#7a5030" stroke-width="0"/><circle cx="44" cy="64" r="2" fill="#fff"/><ellipse cx="74.0" cy="66.0" rx="6.5" ry="6.5" fill="#3a2418" stroke="#7a5030" stroke-width="0"/><circle cx="72" cy="64" r="2" fill="#fff"/><ellipse cx="60.0" cy="77.0" rx="4.5" ry="3.5" fill="#e07a9e" stroke="#7a5030" stroke-width="1.6"/><path d="M53 80 Q60 87 67 80" fill="none" stroke="#7a5030" stroke-width="2.4" stroke-linecap="round" stroke-linejoin="round"/><ellipse cx="48.0" cy="104.0" rx="8.0" ry="6.5" fill="#f0cba0" stroke="#7a5030" stroke-width="2.4"/><ellipse cx="72.0" cy="104.0" rx="8.0" ry="6.5" fill="#f0cba0" stroke="#7a5030" stroke-width="2.4"/></g></symbol>
<symbol id="pose-walk-3" viewBox="0 0 120 135"><g transform="rotate(3 60 122)"><path d="M20 84 q-9,-2 -9,-9 q0,-5 5,-4 q5,1 5,8" fill="#d4a574" stroke="#7a5030" stroke-width="2" stroke-linecap="round" stroke-linejoin="round"/><ellipse cx="58.0" cy="124.0" rx="10.0" ry="7.0" fill="#f0cba0" stroke="#7a5030" stroke-width="2.4"/><ellipse cx="66.0" cy="120.0" rx="10.0" ry="7.0" fill="#f0cba0" stroke="#7a5030" stroke-width="2.4"/><g class="h-ears" transform="rotate(-12 47 48)"><ellipse cx="47.0" cy="36.0" rx="10.0" ry="14.0" fill="#d4a574" stroke="#7a5030" stroke-width="2.4"/><ellipse cx="47.0" cy="38.0" rx="5.0" ry="8.0" fill="#ffb8c8" stroke="#7a5030" stroke-width="0"/></g><g class="h-ears" transform="rotate(12 73 48)"><ellipse cx="73.0" cy="36.0" rx="10.0" ry="14.0" fill="#d4a574" stroke="#7a5030" stroke-width="2.4"/><ellipse cx="73.0" cy="38.0" rx="5.0" ry="8.0" fill="#ffb8c8" stroke="#7a5030" stroke-width="0"/></g><ellipse cx="60.0" cy="78.0" rx="42.0" ry="44.0" fill="#d4a574" stroke="#7a5030" stroke-width="2.4"/><ellipse cx="60.0" cy="88.0" rx="28.0" ry="30.0" fill="#f5e6d0" stroke="#7a5030" stroke-width="0"/><ellipse cx="46.0" cy="66.0" rx="6.5" ry="6.5" fill="#3a2418" stroke="#7a5030" stroke-width="0"/><circle cx="44" cy="64" r="2" fill="#fff"/><ellipse cx="74.0" cy="66.0" rx="6.5" ry="6.5" fill="#3a2418" stroke="#7a5030" stroke-width="0"/><circle cx="72" cy="64" r="2" fill="#fff"/><ellipse cx="60.0" cy="77.0" rx="4.5" ry="3.5" fill="#e07a9e" stroke="#7a5030" stroke-width="1.6"/><path d="M53 80 Q60 87 67 80" fill="none" stroke="#7a5030" stroke-width="2.4" stroke-linecap="round" stroke-linejoin="round"/><ellipse cx="48.0" cy="104.0" rx="8.0" ry="6.5" fill="#f0cba0" stroke="#7a5030" stroke-width="2.4"/><ellipse cx="72.0" cy="104.0" rx="8.0" ry="6.5" fill="#f0cba0" stroke="#7a5030" stroke-width="2.4"/></g></symbol>
<symbol id="pose-walk-4" viewBox="0 0 120 135"><g transform="rotate(3 60 122)"><path d="M20 82 q-9,-2 -9,-9 q0,-5 5,-4 q5,1 5,8" fill="#d4a574" stroke="#7a5030" stroke-width="2" stroke-linecap="round" stroke-linejoin="round"/><ellipse cx="50.0" cy="121.4" rx="10.0" ry="7.0" fill="#f0cba0" stroke="#7a5030" stroke-width="2.4"/><ellipse cx="72.0" cy="121.4" rx="10.0" ry="7.0" fill="#f0cba0" stroke="#7a5030" stroke-width="2.4"/><g class="h-ears" transform="rotate(-12 47 46)"><ellipse cx="47.0" cy="34.0" rx="10.0" ry="14.0" fill="#d4a574" stroke="#7a5030" stroke-width="2.4"/><ellipse cx="47.0" cy="36.0" rx="5.0" ry="8.0" fill="#ffb8c8" stroke="#7a5030" stroke-width="0"/></g><g class="h-ears" transform="rotate(12 73 46)"><ellipse cx="73.0" cy="34.0" rx="10.0" ry="14.0" fill="#d4a574" stroke="#7a5030" stroke-width="2.4"/><ellipse cx="73.0" cy="36.0" rx="5.0" ry="8.0" fill="#ffb8c8" stroke="#7a5030" stroke-width="0"/></g><ellipse cx="60.0" cy="76.0" rx="42.0" ry="44.0" fill="#d4a574" stroke="#7a5030" stroke-width="2.4"/><ellipse cx="60.0" cy="86.0" rx="28.0" ry="30.0" fill="#f5e6d0" stroke="#7a5030" stroke-width="0"/><ellipse cx="46.0" cy="66.0" rx="6.5" ry="6.5" fill="#3a2418" stroke="#7a5030" stroke-width="0"/><circle cx="44" cy="64" r="2" fill="#fff"/><ellipse cx="74.0" cy="66.0" rx="6.5" ry="6.5" fill="#3a2418" stroke="#7a5030" stroke-width="0"/><circle cx="72" cy="64" r="2" fill="#fff"/><ellipse cx="60.0" cy="77.0" rx="4.5" ry="3.5" fill="#e07a9e" stroke="#7a5030" stroke-width="1.6"/><path d="M53 80 Q60 87 67 80" fill="none" stroke="#7a5030" stroke-width="2.4" stroke-linecap="round" stroke-linejoin="round"/><ellipse cx="48.0" cy="104.0" rx="8.0" ry="6.5" fill="#f0cba0" stroke="#7a5030" stroke-width="2.4"/><ellipse cx="72.0" cy="104.0" rx="8.0" ry="6.5" fill="#f0cba0" stroke="#7a5030" stroke-width="2.4"/></g></symbol>
<symbol id="pose-sit" viewBox="0 0 120 135"><path d="M20 84 q-9,-2 -9,-9 q0,-5 5,-4 q5,1 5,8" fill="#d4a574" stroke="#7a5030" stroke-width="2" stroke-linecap="round" stroke-linejoin="round"/><ellipse cx="46.0" cy="122.0" rx="10.0" ry="7.0" fill="#f0cba0" stroke="#7a5030" stroke-width="2.4"/><ellipse cx="74.0" cy="122.0" rx="10.0" ry="7.0" fill="#f0cba0" stroke="#7a5030" stroke-width="2.4"/><g class="h-ears" transform="rotate(-12 47 48)"><ellipse cx="47.0" cy="36.0" rx="10.0" ry="14.0" fill="#d4a574" stroke="#7a5030" stroke-width="2.4"/><ellipse cx="47.0" cy="38.0" rx="5.0" ry="8.0" fill="#ffb8c8" stroke="#7a5030" stroke-width="0"/></g><g class="h-ears" transform="rotate(12 73 48)"><ellipse cx="73.0" cy="36.0" rx="10.0" ry="14.0" fill="#d4a574" stroke="#7a5030" stroke-width="2.4"/><ellipse cx="73.0" cy="38.0" rx="5.0" ry="8.0" fill="#ffb8c8" stroke="#7a5030" stroke-width="0"/></g><ellipse cx="60.0" cy="78.0" rx="42.0" ry="42.7" fill="#d4a574" stroke="#7a5030" stroke-width="2.4"/><ellipse cx="60.0" cy="88.0" rx="28.0" ry="28.7" fill="#f5e6d0" stroke="#7a5030" stroke-width="0"/><ellipse cx="46.0" cy="66.0" rx="6.5" ry="6.5" fill="#3a2418" stroke="#7a5030" stroke-width="0"/><circle cx="44" cy="64" r="2" fill="#fff"/><ellipse cx="74.0" cy="66.0" rx="6.5" ry="6.5" fill="#3a2418" stroke="#7a5030" stroke-width="0"/><circle cx="72" cy="64" r="2" fill="#fff"/><ellipse cx="60.0" cy="77.0" rx="4.5" ry="3.5" fill="#e07a9e" stroke="#7a5030" stroke-width="1.6"/><path d="M60 79 Q55 84 52 81 M60 79 Q65 84 68 81" fill="none" stroke="#7a5030" stroke-width="2.2" stroke-linecap="round" stroke-linejoin="round"/><ellipse cx="50.0" cy="104.0" rx="8.0" ry="6.5" fill="#f0cba0" stroke="#7a5030" stroke-width="2.4"/><ellipse cx="70.0" cy="104.0" rx="8.0" ry="6.5" fill="#f0cba0" stroke="#7a5030" stroke-width="2.4"/></symbol>
<symbol id="pose-sniff" viewBox="0 0 120 135"><g transform="rotate(2 60 122)"><path d="M20 86 q-9,-2 -9,-9 q0,-5 5,-4 q5,1 5,8" fill="#d4a574" stroke="#7a5030" stroke-width="2" stroke-linecap="round" stroke-linejoin="round"/><ellipse cx="46.0" cy="122.6" rx="10.0" ry="7.0" fill="#f0cba0" stroke="#7a5030" stroke-width="2.4"/><ellipse cx="74.0" cy="122.6" rx="10.0" ry="7.0" fill="#f0cba0" stroke="#7a5030" stroke-width="2.4"/><g class="h-ears" transform="rotate(-12 47 50)"><ellipse cx="47.0" cy="38.0" rx="10.0" ry="14.0" fill="#d4a574" stroke="#7a5030" stroke-width="2.4"/><ellipse cx="47.0" cy="40.0" rx="5.0" ry="8.0" fill="#ffb8c8" stroke="#7a5030" stroke-width="0"/></g><g class="h-ears" transform="rotate(12 73 50)"><ellipse cx="73.0" cy="38.0" rx="10.0" ry="14.0" fill="#d4a574" stroke="#7a5030" stroke-width="2.4"/><ellipse cx="73.0" cy="40.0" rx="5.0" ry="8.0" fill="#ffb8c8" stroke="#7a5030" stroke-width="0"/></g><ellipse cx="60.0" cy="80.0" rx="42.0" ry="44.0" fill="#d4a574" stroke="#7a5030" stroke-width="2.4"/><ellipse cx="60.0" cy="90.0" rx="28.0" ry="30.0" fill="#f5e6d0" stroke="#7a5030" stroke-width="0"/><ellipse cx="46.0" cy="66.0" rx="6.5" ry="6.5" fill="#3a2418" stroke="#7a5030" stroke-width="0"/><circle cx="44" cy="64" r="2" fill="#fff"/><ellipse cx="74.0" cy="66.0" rx="6.5" ry="6.5" fill="#3a2418" stroke="#7a5030" stroke-width="0"/><circle cx="72" cy="64" r="2" fill="#fff"/><ellipse cx="60.0" cy="77.0" rx="4.5" ry="3.5" fill="#e07a9e" stroke="#7a5030" stroke-width="1.6"/><path d="M60 79 Q55 84 52 81 M60 79 Q65 84 68 81" fill="none" stroke="#7a5030" stroke-width="2.2" stroke-linecap="round" stroke-linejoin="round"/><ellipse cx="48.0" cy="104.0" rx="8.0" ry="6.5" fill="#f0cba0" stroke="#7a5030" stroke-width="2.4"/><ellipse cx="72.0" cy="104.0" rx="8.0" ry="6.5" fill="#f0cba0" stroke="#7a5030" stroke-width="2.4"/></g></symbol>
<symbol id="pose-groom-1" viewBox="0 0 120 135"><path d="M20 84 q-9,-2 -9,-9 q0,-5 5,-4 q5,1 5,8" fill="#d4a574" stroke="#7a5030" stroke-width="2" stroke-linecap="round" stroke-linejoin="round"/><ellipse cx="46.0" cy="122.0" rx="10.0" ry="7.0" fill="#f0cba0" stroke="#7a5030" stroke-width="2.4"/><ellipse cx="74.0" cy="122.0" rx="10.0" ry="7.0" fill="#f0cba0" stroke="#7a5030" stroke-width="2.4"/><g class="h-ears" transform="rotate(-12 47 48)"><ellipse cx="47.0" cy="36.0" rx="10.0" ry="14.0" fill="#d4a574" stroke="#7a5030" stroke-width="2.4"/><ellipse cx="47.0" cy="38.0" rx="5.0" ry="8.0" fill="#ffb8c8" stroke="#7a5030" stroke-width="0"/></g><g class="h-ears" transform="rotate(12 73 48)"><ellipse cx="73.0" cy="36.0" rx="10.0" ry="14.0" fill="#d4a574" stroke="#7a5030" stroke-width="2.4"/><ellipse cx="73.0" cy="38.0" rx="5.0" ry="8.0" fill="#ffb8c8" stroke="#7a5030" stroke-width="0"/></g><ellipse cx="60.0" cy="78.0" rx="42.0" ry="44.0" fill="#d4a574" stroke="#7a5030" stroke-width="2.4"/><ellipse cx="60.0" cy="88.0" rx="28.0" ry="30.0" fill="#f5e6d0" stroke="#7a5030" stroke-width="0"/><path d="M40 66 Q46 71 52 66" fill="none" stroke="#7a5030" stroke-width="2.6" stroke-linecap="round" stroke-linejoin="round"/><path d="M68 66 Q74 71 80 66" fill="none" stroke="#7a5030" stroke-width="2.6" stroke-linecap="round" stroke-linejoin="round"/><ellipse cx="60.0" cy="77.0" rx="4.5" ry="3.5" fill="#e07a9e" stroke="#7a5030" stroke-width="1.6"/><path d="M53 80 Q60 87 67 80" fill="none" stroke="#7a5030" stroke-width="2.4" stroke-linecap="round" stroke-linejoin="round"/><ellipse cx="54.0" cy="88.0" rx="8.0" ry="6.5" fill="#f0cba0" stroke="#7a5030" stroke-width="2.4"/><ellipse cx="66.0" cy="88.0" rx="8.0" ry="6.5" fill="#f0cba0" stroke="#7a5030" stroke-width="2.4"/></symbol>
<symbol id="pose-eat-1" viewBox="0 0 120 135"><path d="M20 84 q-9,-2 -9,-9 q0,-5 5,-4 q5,1 5,8" fill="#d4a574" stroke="#7a5030" stroke-width="2" stroke-linecap="round" stroke-linejoin="round"/><ellipse cx="46.0" cy="122.0" rx="10.0" ry="7.0" fill="#f0cba0" stroke="#7a5030" stroke-width="2.4"/><ellipse cx="74.0" cy="122.0" rx="10.0" ry="7.0" fill="#f0cba0" stroke="#7a5030" stroke-width="2.4"/><g class="h-ears" transform="rotate(-12 47 48)"><ellipse cx="47.0" cy="36.0" rx="10.0" ry="14.0" fill="#d4a574" stroke="#7a5030" stroke-width="2.4"/><ellipse cx="47.0" cy="38.0" rx="5.0" ry="8.0" fill="#ffb8c8" stroke="#7a5030" stroke-width="0"/></g><g class="h-ears" transform="rotate(12 73 48)"><ellipse cx="73.0" cy="36.0" rx="10.0" ry="14.0" fill="#d4a574" stroke="#7a5030" stroke-width="2.4"/><ellipse cx="73.0" cy="38.0" rx="5.0" ry="8.0" fill="#ffb8c8" stroke="#7a5030" stroke-width="0"/></g><ellipse cx="60.0" cy="78.0" rx="42.0" ry="44.0" fill="#d4a574" stroke="#7a5030" stroke-width="2.4"/><ellipse cx="60.0" cy="88.0" rx="28.0" ry="30.0" fill="#f5e6d0" stroke="#7a5030" stroke-width="0"/><ellipse cx="46.0" cy="66.0" rx="6.5" ry="6.5" fill="#3a2418" stroke="#7a5030" stroke-width="0"/><circle cx="44" cy="64" r="2" fill="#fff"/><ellipse cx="74.0" cy="66.0" rx="6.5" ry="6.5" fill="#3a2418" stroke="#7a5030" stroke-width="0"/><circle cx="72" cy="64" r="2" fill="#fff"/><ellipse cx="60.0" cy="77.0" rx="4.5" ry="3.5" fill="#e07a9e" stroke="#7a5030" stroke-width="1.6"/><ellipse cx="60" cy="83" rx="5" ry="6" fill="#b86a78" stroke="#7a5030" stroke-width="2"/><ellipse cx="60" cy="85" rx="3" ry="3" fill="#ff8fa3"/><ellipse cx="52.0" cy="92.0" rx="8.0" ry="6.5" fill="#f0cba0" stroke="#7a5030" stroke-width="2.4"/><ellipse cx="68.0" cy="92.0" rx="8.0" ry="6.5" fill="#f0cba0" stroke="#7a5030" stroke-width="2.4"/></symbol>
<symbol id="pose-drink" viewBox="0 0 120 135"><path d="M20 80 q-9,-2 -9,-9 q0,-5 5,-4 q5,1 5,8" fill="#d4a574" stroke="#7a5030" stroke-width="2" stroke-linecap="round" stroke-linejoin="round"/><ellipse cx="46.0" cy="120.8" rx="10.0" ry="7.0" fill="#f0cba0" stroke="#7a5030" stroke-width="2.4"/><ellipse cx="74.0" cy="120.8" rx="10.0" ry="7.0" fill="#f0cba0" stroke="#7a5030" stroke-width="2.4"/><g class="h-ears" transform="rotate(-12 47 44)"><ellipse cx="47.0" cy="32.0" rx="10.0" ry="14.0" fill="#d4a574" stroke="#7a5030" stroke-width="2.4"/><ellipse cx="47.0" cy="34.0" rx="5.0" ry="8.0" fill="#ffb8c8" stroke="#7a5030" stroke-width="0"/></g><g class="h-ears" transform="rotate(12 73 44)"><ellipse cx="73.0" cy="32.0" rx="10.0" ry="14.0" fill="#d4a574" stroke="#7a5030" stroke-width="2.4"/><ellipse cx="73.0" cy="34.0" rx="5.0" ry="8.0" fill="#ffb8c8" stroke="#7a5030" stroke-width="0"/></g><ellipse cx="60.0" cy="74.0" rx="42.0" ry="44.0" fill="#d4a574" stroke="#7a5030" stroke-width="2.4"/><ellipse cx="60.0" cy="84.0" rx="28.0" ry="30.0" fill="#f5e6d0" stroke="#7a5030" stroke-width="0"/><ellipse cx="46.0" cy="67.0" rx="6.0" ry="3.2" fill="#3a2418" stroke="#7a5030" stroke-width="0"/><ellipse cx="74.0" cy="67.0" rx="6.0" ry="3.2" fill="#3a2418" stroke="#7a5030" stroke-width="0"/><circle cx="44" cy="65" r="1.5" fill="#fff"/><circle cx="72" cy="65" r="1.5" fill="#fff"/><ellipse cx="60.0" cy="77.0" rx="4.5" ry="3.5" fill="#e07a9e" stroke="#7a5030" stroke-width="1.6"/><path d="M60 79 Q55 84 52 81 M60 79 Q65 84 68 81" fill="none" stroke="#7a5030" stroke-width="2.2" stroke-linecap="round" stroke-linejoin="round"/><ellipse cx="48.0" cy="104.0" rx="8.0" ry="6.5" fill="#f0cba0" stroke="#7a5030" stroke-width="2.4"/><ellipse cx="72.0" cy="104.0" rx="8.0" ry="6.5" fill="#f0cba0" stroke="#7a5030" stroke-width="2.4"/></symbol>
<symbol id="pose-sleep" viewBox="0 0 120 135"><path d="M20 88 q-9,-2 -9,-9 q0,-5 5,-4 q5,1 5,8" fill="#d4a574" stroke="#7a5030" stroke-width="2" stroke-linecap="round" stroke-linejoin="round"/><ellipse cx="46.0" cy="123.2" rx="10.0" ry="7.0" fill="#f0cba0" stroke="#7a5030" stroke-width="2.4"/><ellipse cx="74.0" cy="123.2" rx="10.0" ry="7.0" fill="#f0cba0" stroke="#7a5030" stroke-width="2.4"/><g class="h-ears" transform="rotate(-12 47 52)"><ellipse cx="47.0" cy="40.0" rx="10.0" ry="14.0" fill="#d4a574" stroke="#7a5030" stroke-width="2.4"/><ellipse cx="47.0" cy="42.0" rx="5.0" ry="8.0" fill="#ffb8c8" stroke="#7a5030" stroke-width="0"/></g><g class="h-ears" transform="rotate(12 73 52)"><ellipse cx="73.0" cy="40.0" rx="10.0" ry="14.0" fill="#d4a574" stroke="#7a5030" stroke-width="2.4"/><ellipse cx="73.0" cy="42.0" rx="5.0" ry="8.0" fill="#ffb8c8" stroke="#7a5030" stroke-width="0"/></g><ellipse cx="60.0" cy="82.0" rx="42.0" ry="37.4" fill="#d4a574" stroke="#7a5030" stroke-width="2.4"/><ellipse cx="60.0" cy="92.0" rx="28.0" ry="23.4" fill="#f5e6d0" stroke="#7a5030" stroke-width="0"/><path d="M40 66 Q46 71 52 66" fill="none" stroke="#7a5030" stroke-width="2.6" stroke-linecap="round" stroke-linejoin="round"/><path d="M68 66 Q74 71 80 66" fill="none" stroke="#7a5030" stroke-width="2.6" stroke-linecap="round" stroke-linejoin="round"/><ellipse cx="60.0" cy="77.0" rx="4.5" ry="3.5" fill="#e07a9e" stroke="#7a5030" stroke-width="1.6"/><path d="M53 80 Q60 87 67 80" fill="none" stroke="#7a5030" stroke-width="2.4" stroke-linecap="round" stroke-linejoin="round"/><ellipse cx="48.0" cy="104.0" rx="8.0" ry="6.5" fill="#f0cba0" stroke="#7a5030" stroke-width="2.4"/><ellipse cx="72.0" cy="104.0" rx="8.0" ry="6.5" fill="#f0cba0" stroke="#7a5030" stroke-width="2.4"/><text x="86" y="40" font-size="13">💤</text></symbol>
<symbol id="pose-wheel-1" viewBox="0 0 120 135"><g transform="rotate(4 60 122)"><path d="M20 84 q-9,-2 -9,-9 q0,-5 5,-4 q5,1 5,8" fill="#d4a574" stroke="#7a5030" stroke-width="2" stroke-linecap="round" stroke-linejoin="round"/><ellipse cx="48.0" cy="124.0" rx="10.0" ry="7.0" fill="#f0cba0" stroke="#7a5030" stroke-width="2.4"/><ellipse cx="72.0" cy="118.0" rx="10.0" ry="7.0" fill="#f0cba0" stroke="#7a5030" stroke-width="2.4"/><g class="h-ears" transform="rotate(-12 47 48)"><ellipse cx="47.0" cy="36.0" rx="10.0" ry="14.0" fill="#d4a574" stroke="#7a5030" stroke-width="2.4"/><ellipse cx="47.0" cy="38.0" rx="5.0" ry="8.0" fill="#ffb8c8" stroke="#7a5030" stroke-width="0"/></g><g class="h-ears" transform="rotate(12 73 48)"><ellipse cx="73.0" cy="36.0" rx="10.0" ry="14.0" fill="#d4a574" stroke="#7a5030" stroke-width="2.4"/><ellipse cx="73.0" cy="38.0" rx="5.0" ry="8.0" fill="#ffb8c8" stroke="#7a5030" stroke-width="0"/></g><ellipse cx="60.0" cy="78.0" rx="42.0" ry="44.0" fill="#d4a574" stroke="#7a5030" stroke-width="2.4"/><ellipse cx="60.0" cy="88.0" rx="28.0" ry="30.0" fill="#f5e6d0" stroke="#7a5030" stroke-width="0"/><ellipse cx="46.0" cy="66.0" rx="6.5" ry="6.5" fill="#3a2418" stroke="#7a5030" stroke-width="0"/><circle cx="44" cy="64" r="2" fill="#fff"/><ellipse cx="74.0" cy="66.0" rx="6.5" ry="6.5" fill="#3a2418" stroke="#7a5030" stroke-width="0"/><circle cx="72" cy="64" r="2" fill="#fff"/><ellipse cx="60.0" cy="77.0" rx="4.5" ry="3.5" fill="#e07a9e" stroke="#7a5030" stroke-width="1.6"/><path d="M53 80 Q60 87 67 80" fill="none" stroke="#7a5030" stroke-width="2.4" stroke-linecap="round" stroke-linejoin="round"/><ellipse cx="48.0" cy="104.0" rx="8.0" ry="6.5" fill="#f0cba0" stroke="#7a5030" stroke-width="2.4"/><ellipse cx="72.0" cy="104.0" rx="8.0" ry="6.5" fill="#f0cba0" stroke="#7a5030" stroke-width="2.4"/></g></symbol>
<symbol id="pose-exercise-1" viewBox="0 0 120 135"><path d="M20 78 q-9,-2 -9,-9 q0,-5 5,-4 q5,1 5,8" fill="#d4a574" stroke="#7a5030" stroke-width="2" stroke-linecap="round" stroke-linejoin="round"/><ellipse cx="46.0" cy="120.2" rx="10.0" ry="7.0" fill="#f0cba0" stroke="#7a5030" stroke-width="2.4"/><ellipse cx="74.0" cy="120.2" rx="10.0" ry="7.0" fill="#f0cba0" stroke="#7a5030" stroke-width="2.4"/><g class="h-ears" transform="rotate(-12 47 42)"><ellipse cx="47.0" cy="30.0" rx="10.0" ry="14.0" fill="#d4a574" stroke="#7a5030" stroke-width="2.4"/><ellipse cx="47.0" cy="32.0" rx="5.0" ry="8.0" fill="#ffb8c8" stroke="#7a5030" stroke-width="0"/></g><g class="h-ears" transform="rotate(12 73 42)"><ellipse cx="73.0" cy="30.0" rx="10.0" ry="14.0" fill="#d4a574" stroke="#7a5030" stroke-width="2.4"/><ellipse cx="73.0" cy="32.0" rx="5.0" ry="8.0" fill="#ffb8c8" stroke="#7a5030" stroke-width="0"/></g><ellipse cx="60.0" cy="72.0" rx="42.0" ry="44.0" fill="#d4a574" stroke="#7a5030" stroke-width="2.4"/><ellipse cx="60.0" cy="82.0" rx="28.0" ry="30.0" fill="#f5e6d0" stroke="#7a5030" stroke-width="0"/><ellipse cx="46.0" cy="66.0" rx="6.5" ry="6.5" fill="#3a2418" stroke="#7a5030" stroke-width="0"/><circle cx="44" cy="64" r="2" fill="#fff"/><ellipse cx="74.0" cy="66.0" rx="6.5" ry="6.5" fill="#3a2418" stroke="#7a5030" stroke-width="0"/><circle cx="72" cy="64" r="2" fill="#fff"/><ellipse cx="60.0" cy="77.0" rx="4.5" ry="3.5" fill="#e07a9e" stroke="#7a5030" stroke-width="1.6"/><ellipse cx="60" cy="83" rx="5" ry="6" fill="#b86a78" stroke="#7a5030" stroke-width="2"/><ellipse cx="60" cy="85" rx="3" ry="3" fill="#ff8fa3"/><ellipse cx="48.0" cy="86.0" rx="8.0" ry="6.5" fill="#f0cba0" stroke="#7a5030" stroke-width="2.4"/><ellipse cx="72.0" cy="86.0" rx="8.0" ry="6.5" fill="#f0cba0" stroke="#7a5030" stroke-width="2.4"/></symbol>
<symbol id="pose-petted" viewBox="0 0 120 135"><path d="M20 86 q-9,-2 -9,-9 q0,-5 5,-4 q5,1 5,8" fill="#d4a574" stroke="#7a5030" stroke-width="2" stroke-linecap="round" stroke-linejoin="round"/><ellipse cx="46.0" cy="122.6" rx="10.0" ry="7.0" fill="#f0cba0" stroke="#7a5030" stroke-width="2.4"/><ellipse cx="74.0" cy="122.6" rx="10.0" ry="7.0" fill="#f0cba0" stroke="#7a5030" stroke-width="2.4"/><g class="h-ears" transform="rotate(-12 47 50)"><ellipse cx="47.0" cy="38.0" rx="10.0" ry="14.0" fill="#d4a574" stroke="#7a5030" stroke-width="2.4"/><ellipse cx="47.0" cy="40.0" rx="5.0" ry="8.0" fill="#ffb8c8" stroke="#7a5030" stroke-width="0"/></g><g class="h-ears" transform="rotate(12 73 50)"><ellipse cx="73.0" cy="38.0" rx="10.0" ry="14.0" fill="#d4a574" stroke="#7a5030" stroke-width="2.4"/><ellipse cx="73.0" cy="40.0" rx="5.0" ry="8.0" fill="#ffb8c8" stroke="#7a5030" stroke-width="0"/></g><ellipse cx="60.0" cy="80.0" rx="42.0" ry="40.9" fill="#d4a574" stroke="#7a5030" stroke-width="2.4"/><ellipse cx="60.0" cy="90.0" rx="28.0" ry="26.9" fill="#f5e6d0" stroke="#7a5030" stroke-width="0"/><circle cx="36" cy="82" r="8" fill="#ff9eb0" opacity="0.85"/><circle cx="84" cy="82" r="8" fill="#ff9eb0" opacity="0.85"/><path d="M40 68 Q46 61 52 68" fill="none" stroke="#7a5030" stroke-width="2.6" stroke-linecap="round" stroke-linejoin="round"/><path d="M68 68 Q74 61 80 68" fill="none" stroke="#7a5030" stroke-width="2.6" stroke-linecap="round" stroke-linejoin="round"/><ellipse cx="60.0" cy="77.0" rx="4.5" ry="3.5" fill="#e07a9e" stroke="#7a5030" stroke-width="1.6"/><path d="M53 80 Q60 87 67 80" fill="none" stroke="#7a5030" stroke-width="2.4" stroke-linecap="round" stroke-linejoin="round"/><ellipse cx="50.0" cy="100.0" rx="8.0" ry="6.5" fill="#f0cba0" stroke="#7a5030" stroke-width="2.4"/><ellipse cx="70.0" cy="100.0" rx="8.0" ry="6.5" fill="#f0cba0" stroke="#7a5030" stroke-width="2.4"/></symbol>
<symbol id="pose-tumble-1" viewBox="0 0 120 135"><g transform="rotate(-80 60 122)"><path d="M20 84 q-9,-2 -9,-9 q0,-5 5,-4 q5,1 5,8" fill="#d4a574" stroke="#7a5030" stroke-width="2" stroke-linecap="round" stroke-linejoin="round"/><ellipse cx="40.0" cy="108.0" rx="10.0" ry="7.0" fill="#f0cba0" stroke="#7a5030" stroke-width="2.4"/><ellipse cx="84.0" cy="104.0" rx="10.0" ry="7.0" fill="#f0cba0" stroke="#7a5030" stroke-width="2.4"/><g class="h-ears" transform="rotate(-12 47 48)"><ellipse cx="47.0" cy="36.0" rx="10.0" ry="14.0" fill="#d4a574" stroke="#7a5030" stroke-width="2.4"/><ellipse cx="47.0" cy="38.0" rx="5.0" ry="8.0" fill="#ffb8c8" stroke="#7a5030" stroke-width="0"/></g><g class="h-ears" transform="rotate(12 73 48)"><ellipse cx="73.0" cy="36.0" rx="10.0" ry="14.0" fill="#d4a574" stroke="#7a5030" stroke-width="2.4"/><ellipse cx="73.0" cy="38.0" rx="5.0" ry="8.0" fill="#ffb8c8" stroke="#7a5030" stroke-width="0"/></g><ellipse cx="60.0" cy="78.0" rx="42.0" ry="44.0" fill="#d4a574" stroke="#7a5030" stroke-width="2.4"/><ellipse cx="60.0" cy="88.0" rx="28.0" ry="30.0" fill="#f5e6d0" stroke="#7a5030" stroke-width="0"/><path d="M46 66 m-5,0 a5,5 0 1,1 5,5 a3,3 0 1,1 -3,-3" fill="none" stroke="#7a5030" stroke-width="2.2" stroke-linecap="round" stroke-linejoin="round"/><path d="M74 66 m-5,0 a5,5 0 1,1 5,5 a3,3 0 1,1 -3,-3" fill="none" stroke="#7a5030" stroke-width="2.2" stroke-linecap="round" stroke-linejoin="round"/><ellipse cx="60.0" cy="77.0" rx="4.5" ry="3.5" fill="#e07a9e" stroke="#7a5030" stroke-width="1.6"/><ellipse cx="60" cy="83" rx="5" ry="6" fill="#b86a78" stroke="#7a5030" stroke-width="2"/><ellipse cx="60" cy="85" rx="3" ry="3" fill="#ff8fa3"/><ellipse cx="50.0" cy="92.0" rx="8.0" ry="6.5" fill="#f0cba0" stroke="#7a5030" stroke-width="2.4"/><ellipse cx="72.0" cy="90.0" rx="8.0" ry="6.5" fill="#f0cba0" stroke="#7a5030" stroke-width="2.4"/><text x="88" y="34" font-size="14">⭐</text><text x="18" y="40" font-size="11">✨</text></g></symbol>
<symbol id="pose-recover" viewBox="0 0 120 135"><path d="M20 84 q-9,-2 -9,-9 q0,-5 5,-4 q5,1 5,8" fill="#d4a574" stroke="#7a5030" stroke-width="2" stroke-linecap="round" stroke-linejoin="round"/><ellipse cx="46.0" cy="122.0" rx="10.0" ry="7.0" fill="#f0cba0" stroke="#7a5030" stroke-width="2.4"/><ellipse cx="74.0" cy="122.0" rx="10.0" ry="7.0" fill="#f0cba0" stroke="#7a5030" stroke-width="2.4"/><g class="h-ears" transform="rotate(-12 47 48)"><ellipse cx="47.0" cy="36.0" rx="10.0" ry="14.0" fill="#d4a574" stroke="#7a5030" stroke-width="2.4"/><ellipse cx="47.0" cy="38.0" rx="5.0" ry="8.0" fill="#ffb8c8" stroke="#7a5030" stroke-width="0"/></g><g class="h-ears" transform="rotate(12 73 48)"><ellipse cx="73.0" cy="36.0" rx="10.0" ry="14.0" fill="#d4a574" stroke="#7a5030" stroke-width="2.4"/><ellipse cx="73.0" cy="38.0" rx="5.0" ry="8.0" fill="#ffb8c8" stroke="#7a5030" stroke-width="0"/></g><ellipse cx="60.0" cy="78.0" rx="42.0" ry="44.0" fill="#d4a574" stroke="#7a5030" stroke-width="2.4"/><ellipse cx="60.0" cy="88.0" rx="28.0" ry="30.0" fill="#f5e6d0" stroke="#7a5030" stroke-width="0"/><ellipse cx="46.0" cy="67.0" rx="6.0" ry="3.2" fill="#3a2418" stroke="#7a5030" stroke-width="0"/><ellipse cx="74.0" cy="67.0" rx="6.0" ry="3.2" fill="#3a2418" stroke="#7a5030" stroke-width="0"/><circle cx="44" cy="65" r="1.5" fill="#fff"/><circle cx="72" cy="65" r="1.5" fill="#fff"/><ellipse cx="60.0" cy="77.0" rx="4.5" ry="3.5" fill="#e07a9e" stroke="#7a5030" stroke-width="1.6"/><path d="M60 79 Q55 84 52 81 M60 79 Q65 84 68 81" fill="none" stroke="#7a5030" stroke-width="2.2" stroke-linecap="round" stroke-linejoin="round"/><ellipse cx="48.0" cy="104.0" rx="8.0" ry="6.5" fill="#f0cba0" stroke="#7a5030" stroke-width="2.4"/><ellipse cx="72.0" cy="104.0" rx="8.0" ry="6.5" fill="#f0cba0" stroke="#7a5030" stroke-width="2.4"/><path d="M92 58 q4,6 0,10 q-4,-4 0,-10" fill="#a9d8f0" stroke="#7a5030" stroke-width="1"/></symbol>
<symbol id="pose-wait-bowl" viewBox="0 0 120 135"><path d="M20 84 q-9,-2 -9,-9 q0,-5 5,-4 q5,1 5,8" fill="#d4a574" stroke="#7a5030" stroke-width="2" stroke-linecap="round" stroke-linejoin="round"/><ellipse cx="46.0" cy="122.0" rx="10.0" ry="7.0" fill="#f0cba0" stroke="#7a5030" stroke-width="2.4"/><ellipse cx="74.0" cy="122.0" rx="10.0" ry="7.0" fill="#f0cba0" stroke="#7a5030" stroke-width="2.4"/><g class="h-ears" transform="rotate(-12 47 48)"><ellipse cx="47.0" cy="36.0" rx="10.0" ry="14.0" fill="#d4a574" stroke="#7a5030" stroke-width="2.4"/><ellipse cx="47.0" cy="38.0" rx="5.0" ry="8.0" fill="#ffb8c8" stroke="#7a5030" stroke-width="0"/></g><g class="h-ears" transform="rotate(12 73 48)"><ellipse cx="73.0" cy="36.0" rx="10.0" ry="14.0" fill="#d4a574" stroke="#7a5030" stroke-width="2.4"/><ellipse cx="73.0" cy="38.0" rx="5.0" ry="8.0" fill="#ffb8c8" stroke="#7a5030" stroke-width="0"/></g><ellipse cx="60.0" cy="78.0" rx="42.0" ry="44.0" fill="#d4a574" stroke="#7a5030" stroke-width="2.4"/><ellipse cx="60.0" cy="88.0" rx="28.0" ry="30.0" fill="#f5e6d0" stroke="#7a5030" stroke-width="0"/><ellipse cx="46.0" cy="66.0" rx="6.5" ry="6.5" fill="#3a2418" stroke="#7a5030" stroke-width="0"/><circle cx="44" cy="64" r="2" fill="#fff"/><ellipse cx="74.0" cy="66.0" rx="6.5" ry="6.5" fill="#3a2418" stroke="#7a5030" stroke-width="0"/><circle cx="72" cy="64" r="2" fill="#fff"/><ellipse cx="60.0" cy="77.0" rx="4.5" ry="3.5" fill="#e07a9e" stroke="#7a5030" stroke-width="1.6"/><path d="M60 79 Q55 84 52 81 M60 79 Q65 84 68 81" fill="none" stroke="#7a5030" stroke-width="2.2" stroke-linecap="round" stroke-linejoin="round"/><ellipse cx="48.0" cy="104.0" rx="8.0" ry="6.5" fill="#f0cba0" stroke="#7a5030" stroke-width="2.4"/><ellipse cx="72.0" cy="104.0" rx="8.0" ry="6.5" fill="#f0cba0" stroke="#7a5030" stroke-width="2.4"/></symbol>
<symbol id="pose-annoyed" viewBox="0 0 120 135"><path d="M20 84 q-9,-2 -9,-9 q0,-5 5,-4 q5,1 5,8" fill="#d4a574" stroke="#7a5030" stroke-width="2" stroke-linecap="round" stroke-linejoin="round"/><ellipse cx="46.0" cy="122.0" rx="10.0" ry="7.0" fill="#f0cba0" stroke="#7a5030" stroke-width="2.4"/><ellipse cx="74.0" cy="122.0" rx="10.0" ry="7.0" fill="#f0cba0" stroke="#7a5030" stroke-width="2.4"/><g class="h-ears" transform="rotate(-12 47 48)"><ellipse cx="47.0" cy="36.0" rx="10.0" ry="14.0" fill="#d4a574" stroke="#7a5030" stroke-width="2.4"/><ellipse cx="47.0" cy="38.0" rx="5.0" ry="8.0" fill="#ffb8c8" stroke="#7a5030" stroke-width="0"/></g><g class="h-ears" transform="rotate(12 73 48)"><ellipse cx="73.0" cy="36.0" rx="10.0" ry="14.0" fill="#d4a574" stroke="#7a5030" stroke-width="2.4"/><ellipse cx="73.0" cy="38.0" rx="5.0" ry="8.0" fill="#ffb8c8" stroke="#7a5030" stroke-width="0"/></g><ellipse cx="60.0" cy="78.0" rx="42.0" ry="44.0" fill="#d4a574" stroke="#7a5030" stroke-width="2.4"/><ellipse cx="60.0" cy="88.0" rx="28.0" ry="30.0" fill="#f5e6d0" stroke="#7a5030" stroke-width="0"/><ellipse cx="34.0" cy="82.0" rx="11.0" ry="11.0" fill="#f0c99a" stroke="#7a5030" stroke-width="0"/><ellipse cx="86.0" cy="82.0" rx="11.0" ry="11.0" fill="#f0c99a" stroke="#7a5030" stroke-width="0"/><ellipse cx="46.0" cy="66.0" rx="6.5" ry="6.5" fill="#3a2418" stroke="#7a5030" stroke-width="0"/><circle cx="44" cy="64" r="2" fill="#fff"/><ellipse cx="74.0" cy="66.0" rx="6.5" ry="6.5" fill="#3a2418" stroke="#7a5030" stroke-width="0"/><circle cx="72" cy="64" r="2" fill="#fff"/><ellipse cx="60.0" cy="77.0" rx="4.5" ry="3.5" fill="#e07a9e" stroke="#7a5030" stroke-width="1.6"/><path d="M53 85 Q60 78 67 85" fill="none" stroke="#7a5030" stroke-width="2.6" stroke-linecap="round" stroke-linejoin="round"/><ellipse cx="48.0" cy="104.0" rx="8.0" ry="6.5" fill="#f0cba0" stroke="#7a5030" stroke-width="2.4"/><ellipse cx="72.0" cy="104.0" rx="8.0" ry="6.5" fill="#f0cba0" stroke="#7a5030" stroke-width="2.4"/><g stroke="#e8483f" stroke-width="2.6" stroke-linecap="round" fill="none"><path d="M90 44 l8 -2 M90 44 l7 5 M98 38 l1 8"/></g></symbol>
<symbol id="pose-dizzy" viewBox="0 0 120 135"><path d="M20 84 q-9,-2 -9,-9 q0,-5 5,-4 q5,1 5,8" fill="#d4a574" stroke="#7a5030" stroke-width="2" stroke-linecap="round" stroke-linejoin="round"/><ellipse cx="46.0" cy="122.0" rx="10.0" ry="7.0" fill="#f0cba0" stroke="#7a5030" stroke-width="2.4"/><ellipse cx="74.0" cy="122.0" rx="10.0" ry="7.0" fill="#f0cba0" stroke="#7a5030" stroke-width="2.4"/><g class="h-ears" transform="rotate(-12 47 48)"><ellipse cx="47.0" cy="36.0" rx="10.0" ry="14.0" fill="#d4a574" stroke="#7a5030" stroke-width="2.4"/><ellipse cx="47.0" cy="38.0" rx="5.0" ry="8.0" fill="#ffb8c8" stroke="#7a5030" stroke-width="0"/></g><g class="h-ears" transform="rotate(12 73 48)"><ellipse cx="73.0" cy="36.0" rx="10.0" ry="14.0" fill="#d4a574" stroke="#7a5030" stroke-width="2.4"/><ellipse cx="73.0" cy="38.0" rx="5.0" ry="8.0" fill="#ffb8c8" stroke="#7a5030" stroke-width="0"/></g><ellipse cx="60.0" cy="78.0" rx="42.0" ry="44.0" fill="#d4a574" stroke="#7a5030" stroke-width="2.4"/><ellipse cx="60.0" cy="88.0" rx="28.0" ry="30.0" fill="#f5e6d0" stroke="#7a5030" stroke-width="0"/><path d="M46 66 m-5,0 a5,5 0 1,1 5,5 a3,3 0 1,1 -3,-3" fill="none" stroke="#7a5030" stroke-width="2.2" stroke-linecap="round" stroke-linejoin="round"/><path d="M74 66 m-5,0 a5,5 0 1,1 5,5 a3,3 0 1,1 -3,-3" fill="none" stroke="#7a5030" stroke-width="2.2" stroke-linecap="round" stroke-linejoin="round"/><ellipse cx="60.0" cy="77.0" rx="4.5" ry="3.5" fill="#e07a9e" stroke="#7a5030" stroke-width="1.6"/><path d="M54 82 L66 82" fill="none" stroke="#7a5030" stroke-width="2.6" stroke-linecap="round" stroke-linejoin="round"/><ellipse cx="48.0" cy="104.0" rx="8.0" ry="6.5" fill="#f0cba0" stroke="#7a5030" stroke-width="2.4"/><ellipse cx="72.0" cy="104.0" rx="8.0" ry="6.5" fill="#f0cba0" stroke="#7a5030" stroke-width="2.4"/><text x="88" y="34" font-size="14">⭐</text><text x="18" y="40" font-size="11">✨</text></symbol>
</svg>